# xmcd CD database file
#
# Track frame offsets:
#	150
#	14348
#	28631
#	49481
#	72229
#	88065
#	104924
#	119984
#	139243
#	155704
#	168611
#	189200
#	208682
#	232004
#
# Disc length: 3264 seconds
#
# Revision: 0
# Processed by: cddbd v1.5.2PL0 Copyright (c) Steve Scherf et al.
# Submitted via: CDex 1.70beta2
#
DISCID=d90cbe0e
DTITLE=Michael Buble - Call Me Irresponsible
DYEAR=2007
DGENRE=Jazz
TTITLE0=01 - The Best Is Yet To Come
TTITLE1=02 - It Had Better Be Tonight
TTITLE2=03 - Me And Mrs. Jones
TTITLE3=04 - I'm Your Man
TTITLE4=05 - Comin' Home Baby
TTITLE5=06 - Lost
TTITLE6=07 - Call Me Irresponsible
TTITLE7=08 - Wonderful Tonight
TTITLE8=09 - Everithing
TTITLE9=10 - I've Got The World On A String
TTITLE10=11 - Always On My Mind
TTITLE11=12 - That's Life
TTITLE12=13 - Dream
TTITLE13=14 - Love
EXTD=YEAR: 2007
EXTT0=
EXTT1=
EXTT2=
EXTT3=
EXTT4=
EXTT5=
EXTT6=
EXTT7=
EXTT8=
EXTT9=
EXTT10=
EXTT11=
EXTT12=
EXTT13=
PLAYORDER=
